<?xml version="1.0" encoding="UTF-8"?>
<svg id="Site_Icon" data-name="Site Icon" xmlns="http://www.w3.org/2000/svg" viewBox="0 0 600 600">
  <defs>
    <style>
      .cls-1 {
        fill: #fbfaf8;
      }

      .cls-2 {
        fill: #1b2021;
      }

      .cls-3 {
        fill: none;
        stroke: #fbfaf8;
        stroke-miterlimit: 10;
        stroke-width: 16px;
      }
    </style>
  </defs>
  <rect class="cls-2" x="0" y="2.57" width="600" height="600"/>
  <circle class="cls-3" cx="299.79" cy="300" r="255.11"/>
  <g>
    <path class="cls-1" d="M339.28,159.76c.22-4.08,3.02-7.38,6.42-8.02,4.29-.81,9.12,2.67,9.63,8.02v278.64c-.36,4.01-3.37,7.16-6.95,7.62-4.25.55-8.57-2.78-9.09-7.62V159.76Z"/>
    <path class="cls-1" d="M234.73,178.16c.22-3.65,3.02-6.6,6.42-7.18,4.29-.73,9.12,2.39,9.63,7.18v249.24c-.36,3.59-3.37,6.4-6.95,6.82-4.25.49-8.57-2.49-9.09-6.82v-249.24Z"/>
    <path class="cls-1" d="M373.51,213.38v167.13c.91,3.75,4.29,6.42,8.16,6.42s7.25-2.67,8.16-6.42v-167.13c-.81-3.93-4.32-6.75-8.29-6.69-3.87.06-7.23,2.85-8.02,6.69Z"/>
    <path class="cls-1" d="M296.77,106.68c-11.63-.71-22.6,6.73-26.47,18.18v351.65c4.2,10.35,14.35,17.07,25.4,16.85,10.68-.21,20.29-6.86,24.33-16.85V124.86c-3.45-10.33-12.72-17.54-23.26-18.18ZM304.52,474.11c-.21.41-2.88,5.47-8.56,6.15-4.5.54-9-1.91-11.23-6.15.62-115.26,1.25-230.51,1.87-345.77,1.21-4.01,4.94-6.74,9.09-6.69,4.05.06,7.64,2.77,8.82,6.69v345.77Z"/>
    <path class="cls-1" d="M207.54,214.72c-3.72,0-7.01,2.49-8.02,6.06v57.76c-.79,2.25-2.63,6.53-6.77,10.34-3.05,2.8-6.16,4.27-8.2,5.04h-72.02c-3.56.65-6.21,3.62-6.42,7.07-.23,3.78,2.5,7.3,6.42,8.03h72.2c1.71.39,5.78,1.55,9.45,5.17,3.77,3.72,4.96,7.92,5.35,9.63v58.47c1.16,3.8,4.75,6.3,8.56,6.06,3.45-.22,6.46-2.64,7.49-6.06v-161.52c-1.02-3.58-4.31-6.06-8.02-6.06Z"/>
    <path class="cls-1" d="M488.68,293.83h-55.53c-1.03-.08-4.45-.46-7.49-3.21-2-1.82-2.98-3.89-3.48-5.38v-16.9c-.49-3.26-3.35-5.64-6.55-5.53-3.04.11-5.65,2.43-6.11,5.53-.15,20.47-.3,40.94-.45,61.42.5,3.21,3.28,5.59,6.51,5.62,3.26.02,6.09-2.38,6.6-5.62v-12.84c.22-1.16,1.01-4.43,3.92-7.22,2.77-2.65,5.86-3.36,7.04-3.57h55.53c2.75-.71,4.72-3.15,4.81-5.93.1-2.94-1.9-5.62-4.81-6.37Z"/>
  </g>
</svg>